<svg xmlns="http://www.w3.org/2000/svg" xmlns:xlink="http://www.w3.org/1999/xlink" width="2048" zoomAndPan="magnify" viewBox="0 0 1536 1535.999932" height="2048" preserveAspectRatio="xMidYMid meet" version="1.0"><defs><clipPath id="19a45112c0"><path d="M 12.738281 12.738281 L 1523.261719 12.738281 L 1523.261719 1523.261719 L 12.738281 1523.261719 Z M 12.738281 12.738281 " clip-rule="nonzero"/></clipPath><clipPath id="cd433627be"><path d="M 768 12.738281 C 350.882812 12.738281 12.738281 350.882812 12.738281 768 C 12.738281 1185.117188 350.882812 1523.261719 768 1523.261719 C 1185.117188 1523.261719 1523.261719 1185.117188 1523.261719 768 C 1523.261719 350.882812 1185.117188 12.738281 768 12.738281 Z M 768 12.738281 " clip-rule="nonzero"/></clipPath><clipPath id="2efc47c04b"><path d="M 0.738281 0.738281 L 1511.261719 0.738281 L 1511.261719 1511.261719 L 0.738281 1511.261719 Z M 0.738281 0.738281 " clip-rule="nonzero"/></clipPath><clipPath id="bac1ef4ef9"><path d="M 756 0.738281 C 338.882812 0.738281 0.738281 338.882812 0.738281 756 C 0.738281 1173.117188 338.882812 1511.261719 756 1511.261719 C 1173.117188 1511.261719 1511.261719 1173.117188 1511.261719 756 C 1511.261719 338.882812 1173.117188 0.738281 756 0.738281 Z M 756 0.738281 " clip-rule="nonzero"/></clipPath><clipPath id="0c27eec954"><rect x="0" width="1512" y="0" height="1512"/></clipPath><clipPath id="7db5b782d3"><path d="M 277 918 L 1275 918 L 1275 1270.992188 L 277 1270.992188 Z M 277 918 " clip-rule="nonzero"/></clipPath><clipPath id="31d3deff9e"><path d="M 341 265.242188 L 419 265.242188 L 419 431 L 341 431 Z M 341 265.242188 " clip-rule="nonzero"/></clipPath><clipPath id="0f5961fbef"><path d="M 729 265.242188 L 807 265.242188 L 807 431 L 729 431 Z M 729 265.242188 " clip-rule="nonzero"/></clipPath><clipPath id="bbc7c39113"><path d="M 1117 265.242188 L 1195 265.242188 L 1195 431 L 1117 431 Z M 1117 265.242188 " clip-rule="nonzero"/></clipPath></defs><g clip-path="url(#19a45112c0)"><g clip-path="url(#cd433627be)"><g transform="matrix(1, 0, 0, 1, 12, 12)"><g clip-path="url(#0c27eec954)"><g clip-path="url(#2efc47c04b)"><g clip-path="url(#bac1ef4ef9)"><path fill="#ffffff" d="M 0.738281 0.738281 L 1511.261719 0.738281 L 1511.261719 1511.261719 L 0.738281 1511.261719 Z M 0.738281 0.738281 " fill-opacity="1" fill-rule="nonzero"/></g></g></g></g></g></g><g clip-path="url(#7db5b782d3)"><path fill="#556b2f" d="M 1157.546875 918.691406 C 1162.792969 918.695312 1167.179688 922.679688 1167.683594 927.902344 L 1185.71875 1114.238281 C 1197.609375 1124.300781 1207.53125 1136.449219 1213.890625 1149.3125 C 1220.867188 1163.433594 1221.46875 1166.164062 1221.996094 1186.03125 C 1222.519531 1205.335938 1223.046875 1207.882812 1227.222656 1211.265625 C 1229.78125 1213.335938 1233.515625 1215.027344 1235.535156 1215.027344 C 1241.785156 1215.027344 1249.960938 1206.914062 1251.394531 1199.28125 C 1252.136719 1195.3125 1253.203125 1192.066406 1253.761719 1192.066406 C 1254.320312 1192.070312 1257.515625 1194.027344 1260.875 1196.417969 C 1276.300781 1207.402344 1279.804688 1232.308594 1267.625 1244.480469 C 1262.511719 1249.601562 1257.625 1251.402344 1237.589844 1255.605469 C 1170.566406 1269.660156 1080.957031 1274.335938 1001.355469 1267.921875 C 985.566406 1266.648438 985.316406 1266.546875 988.304688 1262.28125 C 992.292969 1256.582031 992.183594 1247.476562 988.070312 1243.363281 C 981.457031 1236.746094 975.71875 1237.292969 959.703125 1246.085938 C 951.238281 1250.730469 940.394531 1255.914062 935.589844 1257.605469 C 906.925781 1267.71875 823.035156 1271.363281 779.472656 1264.386719 C 726.652344 1255.921875 701.957031 1246.195312 679.613281 1225.035156 C 664.886719 1211.085938 657.792969 1209.746094 650.515625 1219.539062 C 645.191406 1226.695312 646.804688 1233.449219 656.351562 1244.019531 L 663.589844 1252.03125 L 651.605469 1253.460938 C 596.972656 1259.964844 573.65625 1261.4375 510.179688 1262.421875 C 420.867188 1263.816406 365.886719 1259.714844 320.238281 1248.242188 C 300.417969 1243.261719 277.441406 1233.050781 277.453125 1229.226562 C 277.46875 1224.410156 285.234375 1213.578125 292.832031 1207.789062 C 303.527344 1199.628906 317.90625 1195.773438 331.816406 1197.339844 C 341.257812 1198.398438 344.226562 1197.9375 347.902344 1194.832031 C 359.257812 1185.238281 354.210938 1172.546875 337.332031 1168.265625 L 327.464844 1165.757812 L 333.828125 1153.019531 C 338.601562 1143.472656 343.804688 1137.121094 352.171875 1131.523438 L 370.234375 927.980469 C 370.699219 922.726562 375.105469 918.691406 380.382812 918.691406 C 385.632812 918.695312 390.019531 922.679688 390.527344 927.902344 L 411.257812 1142.15625 C 416.546875 1146.90625 426.171875 1147.410156 430.554688 1143.03125 C 432.269531 1141.316406 434.804688 1136.386719 436.191406 1132.070312 C 442.648438 1112.015625 464.972656 1086.867188 485.566406 1076.460938 C 494.800781 1071.792969 516.59375 1066.886719 528.277344 1066.851562 C 552.464844 1066.773438 586.5 1076.984375 602.324219 1089.058594 C 617.890625 1100.945312 625.15625 1099.320312 634.738281 1081.808594 C 639.097656 1073.84375 667.101562 1051.5625 687.261719 1040.03125 C 704.816406 1029.984375 721.414062 1023.730469 740.859375 1019.835938 C 743.519531 1019.300781 746.207031 1018.839844 748.929688 1018.453125 L 756.957031 927.980469 C 757.421875 922.726562 761.824219 918.691406 767.109375 918.691406 C 772.355469 918.695312 776.738281 922.679688 777.25 927.902344 L 785.933594 1017.652344 C 801.863281 1019.109375 817.878906 1022.820312 833.035156 1028.707031 C 859.644531 1039.035156 876.457031 1052.132812 906.808594 1086.171875 C 920.851562 1101.917969 925.691406 1103.445312 934.273438 1094.859375 C 941.175781 1087.957031 939.859375 1080.035156 929.761719 1067.714844 C 925.746094 1062.8125 922.46875 1057.914062 922.46875 1056.808594 C 922.46875 1053.582031 941.230469 1046.433594 956.824219 1043.71875 C 983.269531 1039.109375 1019.121094 1045.089844 1045.789062 1058.550781 C 1058.898438 1065.171875 1060.765625 1067.792969 1053.917969 1069.96875 C 1048.003906 1071.847656 1043.109375 1080.09375 1043.90625 1086.828125 C 1044.292969 1090.054688 1047.078125 1094.355469 1050.367188 1096.804688 C 1055.574219 1100.671875 1056.824219 1100.820312 1062.886719 1098.308594 C 1087.367188 1088.175781 1092.125 1087.265625 1115.554688 1088.183594 C 1121.917969 1088.433594 1127.847656 1088.914062 1133.054688 1089.554688 L 1147.394531 927.980469 C 1147.859375 922.726562 1152.265625 918.691406 1157.546875 918.691406 Z M 1157.546875 918.691406 " fill-opacity="1" fill-rule="nonzero"/></g><path fill="#556b2f" d="M 247.726562 825.535156 C 266.261719 827.410156 292.5 836.585938 307.1875 846.339844 C 322.160156 856.277344 340.117188 875.585938 345.976562 888.058594 C 348.867188 894.207031 350.507812 901.75 350.507812 908.910156 C 350.507812 918.363281 349.605469 921.035156 344.769531 925.875 C 339.535156 931.109375 337.996094 931.523438 327.410156 930.566406 C 291.773438 927.34375 256.269531 890.542969 238.558594 838.480469 L 233.664062 824.105469 Z M 247.726562 825.535156 " fill-opacity="1" fill-rule="nonzero"/><path fill="#556b2f" d="M 520.808594 838.769531 C 503.199219 890.535156 467.597656 927.347656 432.046875 930.566406 C 421.464844 931.523438 419.925781 931.109375 414.695312 925.875 C 409.855469 921.035156 408.957031 918.363281 408.957031 908.910156 C 408.957031 894.289062 414.917969 881.769531 429.234375 866.300781 C 447.859375 846.183594 469.589844 833.945312 497.671875 827.769531 C 504.558594 826.253906 513.660156 824.933594 517.894531 824.839844 L 525.605469 824.675781 Z M 520.808594 838.769531 " fill-opacity="1" fill-rule="nonzero"/><path fill="#556b2f" d="M 635.992188 825.535156 C 654.527344 827.410156 680.765625 836.585938 695.453125 846.339844 C 710.425781 856.277344 728.382812 875.585938 734.242188 888.058594 C 737.132812 894.207031 738.773438 901.75 738.773438 908.910156 C 738.773438 918.363281 737.863281 921.035156 733.03125 925.875 C 727.796875 931.109375 726.261719 931.523438 715.679688 930.566406 C 680.039062 927.34375 644.527344 890.542969 626.816406 838.480469 L 621.929688 824.105469 Z M 635.992188 825.535156 " fill-opacity="1" fill-rule="nonzero"/><path fill="#556b2f" d="M 909.074219 838.769531 C 891.464844 890.535156 855.867188 927.347656 820.3125 930.566406 C 809.726562 931.523438 808.191406 931.109375 802.960938 925.875 C 798.125 921.035156 797.21875 918.363281 797.21875 908.910156 C 797.21875 894.289062 803.183594 881.769531 817.5 866.300781 C 836.125 846.183594 857.859375 833.945312 885.9375 827.769531 C 892.824219 826.253906 901.925781 824.933594 906.160156 824.839844 L 913.871094 824.675781 Z M 909.074219 838.769531 " fill-opacity="1" fill-rule="nonzero"/><path fill="#556b2f" d="M 1024.257812 825.535156 C 1042.792969 827.410156 1069.03125 836.585938 1083.71875 846.339844 C 1098.691406 856.277344 1116.644531 875.585938 1122.507812 888.058594 C 1125.394531 894.207031 1127.03125 901.75 1127.03125 908.910156 C 1127.03125 918.363281 1126.132812 921.035156 1121.292969 925.875 C 1116.0625 931.109375 1114.523438 931.523438 1103.941406 930.566406 C 1068.304688 927.34375 1032.792969 890.542969 1015.085938 838.480469 L 1010.191406 824.105469 Z M 1024.257812 825.535156 " fill-opacity="1" fill-rule="nonzero"/><path fill="#556b2f" d="M 1297.339844 838.769531 C 1279.730469 890.535156 1244.128906 927.347656 1208.574219 930.566406 C 1197.992188 931.523438 1196.457031 931.109375 1191.222656 925.875 C 1186.386719 921.035156 1185.480469 918.363281 1185.480469 908.910156 C 1185.480469 894.296875 1191.441406 881.769531 1205.761719 866.300781 C 1224.386719 846.183594 1246.117188 833.945312 1274.199219 827.769531 C 1281.085938 826.253906 1290.195312 824.933594 1294.429688 824.839844 L 1302.128906 824.675781 Z M 1297.339844 838.769531 " fill-opacity="1" fill-rule="nonzero"/><path fill="#556b2f" d="M 221.085938 689.546875 C 221.085938 687.421875 223.679688 687.050781 232.042969 687.988281 C 297.171875 695.261719 330.167969 712.914062 347.25 749.613281 C 356.347656 769.15625 353.824219 787.144531 341.261719 792.390625 C 319.253906 801.589844 272.480469 775.703125 247.277344 740.378906 C 237.90625 727.253906 221.085938 694.601562 221.085938 689.546875 Z M 221.085938 689.546875 " fill-opacity="1" fill-rule="nonzero"/><path fill="#556b2f" d="M 515.414062 689.242188 C 538.101562 686.644531 538.378906 686.648438 538.378906 689.625 C 538.375 694.625 521.488281 727.34375 512.1875 740.378906 C 486.980469 775.703125 440.207031 801.589844 418.199219 792.390625 C 392.167969 781.511719 413.371094 727.957031 451.863281 707.34375 C 465.460938 700.070312 495.453125 691.523438 515.414062 689.242188 Z M 515.414062 689.242188 " fill-opacity="1" fill-rule="nonzero"/><path fill="#556b2f" d="M 609.351562 689.546875 C 609.351562 687.421875 611.941406 687.050781 620.308594 687.988281 C 685.433594 695.261719 718.429688 712.914062 735.511719 749.613281 C 744.609375 769.15625 742.089844 787.144531 729.527344 792.390625 C 707.519531 801.589844 660.746094 775.703125 635.539062 740.378906 C 626.171875 727.253906 609.351562 694.601562 609.351562 689.546875 Z M 609.351562 689.546875 " fill-opacity="1" fill-rule="nonzero"/><path fill="#556b2f" d="M 903.679688 689.242188 C 926.367188 686.644531 926.636719 686.648438 926.636719 689.625 C 926.632812 694.625 909.75 727.34375 900.449219 740.378906 C 875.242188 775.703125 828.472656 801.589844 806.460938 792.390625 C 780.429688 781.515625 801.636719 727.957031 840.128906 707.34375 C 853.726562 700.070312 883.714844 691.523438 903.679688 689.242188 Z M 903.679688 689.242188 " fill-opacity="1" fill-rule="nonzero"/><path fill="#556b2f" d="M 997.613281 689.546875 C 997.621094 687.421875 1000.210938 687.050781 1008.574219 687.988281 C 1073.699219 695.261719 1106.691406 712.914062 1123.777344 749.613281 C 1132.871094 769.15625 1130.355469 787.144531 1117.789062 792.390625 C 1095.78125 801.589844 1049.015625 775.703125 1023.804688 740.378906 C 1014.441406 727.253906 997.613281 694.601562 997.613281 689.546875 Z M 997.613281 689.546875 " fill-opacity="1" fill-rule="nonzero"/><path fill="#556b2f" d="M 1291.949219 689.242188 C 1314.628906 686.644531 1314.902344 686.648438 1314.902344 689.625 C 1314.898438 694.625 1298.015625 727.34375 1288.710938 740.378906 C 1263.507812 775.703125 1216.734375 801.589844 1194.726562 792.390625 C 1168.695312 781.515625 1189.902344 727.957031 1228.394531 707.34375 C 1241.988281 700.070312 1271.984375 691.523438 1291.949219 689.242188 Z M 1291.949219 689.242188 " fill-opacity="1" fill-rule="nonzero"/><path fill="#556b2f" d="M 223.171875 549.328125 C 223.171875 547.128906 248.15625 550.667969 268.054688 555.675781 C 292.8125 561.910156 309.769531 571.050781 325.625 586.707031 C 343.148438 604.003906 351.390625 620.175781 351.484375 637.414062 C 351.542969 648.449219 350.929688 650.21875 345.398438 654.980469 C 339.871094 659.734375 337.945312 660.171875 326.355469 659.238281 C 298.800781 657.03125 265.425781 632.304688 246.386719 600.011719 C 238.449219 586.550781 223.175781 553.203125 223.171875 549.328125 Z M 223.171875 549.328125 " fill-opacity="1" fill-rule="nonzero"/><path fill="#556b2f" d="M 518.546875 550.296875 C 527.722656 548.929688 535.496094 548.429688 535.832031 549.1875 C 536.882812 551.667969 522.074219 584.75 513.078125 600.011719 C 494.039062 632.304688 460.660156 657.023438 433.105469 659.238281 C 421.519531 660.171875 419.589844 659.734375 414.0625 654.980469 C 408.53125 650.21875 407.917969 648.449219 407.980469 637.414062 C 408.070312 620.175781 416.3125 604.003906 433.832031 586.707031 C 454.46875 566.328125 477.546875 556.410156 518.546875 550.296875 Z M 518.546875 550.296875 " fill-opacity="1" fill-rule="nonzero"/><path fill="#556b2f" d="M 611.4375 549.328125 C 611.4375 547.128906 636.421875 550.667969 656.316406 555.675781 C 681.078125 561.910156 698.035156 571.050781 713.894531 586.707031 C 731.414062 604.003906 739.660156 620.175781 739.746094 637.414062 C 739.8125 648.449219 739.191406 650.21875 733.664062 654.980469 C 728.132812 659.734375 726.207031 660.171875 714.621094 659.238281 C 687.066406 657.03125 653.691406 632.304688 634.648438 600.011719 C 626.714844 586.550781 611.441406 553.203125 611.4375 549.328125 Z M 611.4375 549.328125 " fill-opacity="1" fill-rule="nonzero"/><path fill="#556b2f" d="M 906.808594 550.296875 C 915.984375 548.929688 923.765625 548.429688 924.097656 549.1875 C 925.152344 551.667969 910.335938 584.75 901.34375 600.011719 C 882.304688 632.304688 848.929688 657.023438 821.371094 659.238281 C 809.78125 660.171875 807.855469 659.734375 802.324219 654.980469 C 796.796875 650.21875 796.183594 648.449219 796.246094 637.414062 C 796.335938 620.175781 804.574219 604.003906 822.09375 586.707031 C 842.730469 566.328125 865.808594 556.410156 906.808594 550.296875 Z M 906.808594 550.296875 " fill-opacity="1" fill-rule="nonzero"/><path fill="#556b2f" d="M 999.699219 549.328125 C 999.699219 547.128906 1024.683594 550.667969 1044.578125 555.675781 C 1069.339844 561.910156 1086.304688 571.046875 1102.160156 586.707031 C 1119.679688 604.003906 1127.917969 620.175781 1128.011719 637.414062 C 1128.070312 648.449219 1127.457031 650.21875 1121.925781 654.980469 C 1116.398438 659.734375 1114.472656 660.171875 1102.882812 659.238281 C 1075.328125 657.023438 1041.949219 632.304688 1022.914062 600.011719 C 1014.976562 586.550781 999.707031 553.203125 999.699219 549.328125 Z M 999.699219 549.328125 " fill-opacity="1" fill-rule="nonzero"/><path fill="#556b2f" d="M 1295.074219 550.296875 C 1304.253906 548.929688 1312.035156 548.429688 1312.367188 549.1875 C 1313.417969 551.667969 1298.597656 584.75 1289.605469 600.011719 C 1270.5625 632.304688 1237.1875 657.03125 1209.628906 659.238281 C 1198.046875 660.171875 1196.117188 659.734375 1190.589844 654.980469 C 1185.058594 650.21875 1184.445312 648.449219 1184.503906 637.414062 C 1184.597656 620.175781 1192.84375 604.003906 1210.363281 586.707031 C 1231 566.328125 1254.078125 556.410156 1295.074219 550.296875 Z M 1295.074219 550.296875 " fill-opacity="1" fill-rule="nonzero"/><path fill="#556b2f" d="M 237.550781 407.183594 C 241.359375 407.183594 282.285156 425.359375 296.09375 433.183594 C 326.492188 450.40625 345.375 468.742188 352.597656 488.046875 C 357.824219 502.015625 356.753906 514.046875 349.859375 518.878906 C 343.320312 523.457031 323.65625 522.828125 309.660156 517.589844 C 294.722656 512.003906 275.246094 493.246094 263.285156 472.941406 C 255.820312 460.265625 241.015625 426.125 236.804688 411.882812 C 236.003906 409.171875 236.316406 407.1875 237.550781 407.183594 Z M 237.550781 407.183594 " fill-opacity="1" fill-rule="nonzero"/><path fill="#556b2f" d="M 497.671875 416.503906 C 522.1875 405.851562 524.570312 405.410156 522.660156 411.882812 C 518.449219 426.125 503.644531 460.261719 496.175781 472.941406 C 484.21875 493.25 464.738281 512.003906 449.796875 517.589844 C 435.800781 522.828125 416.144531 523.457031 409.605469 518.878906 C 398.210938 510.894531 403.652344 484.746094 420.644531 465.84375 C 436.988281 447.667969 460.265625 432.757812 497.671875 416.503906 Z M 497.671875 416.503906 " fill-opacity="1" fill-rule="nonzero"/><path fill="#556b2f" d="M 625.816406 407.183594 C 629.628906 407.1875 670.554688 425.363281 684.359375 433.183594 C 714.757812 450.40625 733.640625 468.742188 740.863281 488.046875 C 746.089844 502.015625 745.019531 514.046875 738.121094 518.878906 C 731.582031 523.457031 711.921875 522.828125 697.925781 517.589844 C 682.988281 512.003906 663.511719 493.246094 651.554688 472.941406 C 644.085938 460.265625 629.277344 426.125 625.066406 411.882812 C 624.265625 409.171875 624.582031 407.183594 625.816406 407.183594 Z M 625.816406 407.183594 " fill-opacity="1" fill-rule="nonzero"/><path fill="#556b2f" d="M 885.9375 416.503906 C 910.453125 405.851562 912.835938 405.410156 910.921875 411.882812 C 906.710938 426.125 891.902344 460.265625 884.433594 472.941406 C 872.480469 493.246094 853.003906 512.003906 838.0625 517.589844 C 824.066406 522.828125 804.410156 523.457031 797.871094 518.878906 C 786.476562 510.894531 791.914062 484.746094 808.910156 465.84375 C 825.25 447.667969 848.527344 432.757812 885.9375 416.503906 Z M 885.9375 416.503906 " fill-opacity="1" fill-rule="nonzero"/><path fill="#556b2f" d="M 1014.078125 407.183594 C 1017.898438 407.191406 1058.820312 425.363281 1072.625 433.183594 C 1103.019531 450.40625 1121.902344 468.742188 1129.125 488.046875 C 1134.355469 502.015625 1133.277344 514.046875 1126.382812 518.878906 C 1119.839844 523.457031 1100.1875 522.828125 1086.1875 517.589844 C 1071.25 512.003906 1051.773438 493.246094 1039.820312 472.941406 C 1032.351562 460.265625 1017.542969 426.125 1013.332031 411.882812 C 1012.527344 409.171875 1012.851562 407.183594 1014.078125 407.183594 Z M 1014.078125 407.183594 " fill-opacity="1" fill-rule="nonzero"/><path fill="#556b2f" d="M 1274.199219 416.503906 C 1298.710938 405.851562 1301.097656 405.410156 1299.1875 411.882812 C 1294.980469 426.125 1280.171875 460.265625 1272.703125 472.941406 C 1260.742188 493.246094 1241.265625 512.003906 1226.328125 517.589844 C 1212.332031 522.828125 1192.671875 523.457031 1186.128906 518.878906 C 1174.734375 510.894531 1180.183594 484.746094 1197.179688 465.84375 C 1213.519531 447.667969 1236.792969 432.757812 1274.199219 416.503906 Z M 1274.199219 416.503906 " fill-opacity="1" fill-rule="nonzero"/><g clip-path="url(#31d3deff9e)"><path fill="#556b2f" d="M 379.730469 265.242188 C 384.382812 265.246094 404.238281 303.570312 412.179688 327.867188 C 417.074219 342.851562 418.007812 349.339844 418.164062 369.613281 C 418.335938 391.878906 417.925781 394.480469 412.503906 405.527344 C 405.875 419.027344 397.535156 426.984375 386.96875 429.902344 C 371.511719 434.171875 356.550781 425.054688 346.960938 405.527344 C 341.535156 394.480469 341.125 391.878906 341.300781 369.613281 C 341.457031 349.339844 342.382812 342.851562 347.28125 327.867188 C 353.539062 308.71875 359.390625 296.078125 370.722656 277.246094 C 374.695312 270.644531 378.75 265.242188 379.730469 265.242188 Z M 379.730469 265.242188 " fill-opacity="1" fill-rule="nonzero"/></g><g clip-path="url(#0f5961fbef)"><path fill="#556b2f" d="M 767.996094 265.242188 C 772.652344 265.253906 792.5 303.570312 800.441406 327.867188 C 805.34375 342.851562 806.269531 349.339844 806.421875 369.613281 C 806.597656 391.878906 806.183594 394.480469 800.765625 405.527344 C 791.171875 425.054688 776.214844 434.171875 760.753906 429.902344 C 750.1875 426.984375 741.855469 419.027344 735.222656 405.527344 C 729.804688 394.480469 729.394531 391.878906 729.566406 369.613281 C 729.71875 349.339844 730.644531 342.851562 735.546875 327.867188 C 741.804688 308.71875 747.65625 296.078125 758.988281 277.246094 C 762.960938 270.644531 767.011719 265.242188 767.996094 265.242188 Z M 767.996094 265.242188 " fill-opacity="1" fill-rule="nonzero"/></g><g clip-path="url(#bbc7c39113)"><path fill="#556b2f" d="M 1156.257812 265.242188 C 1160.90625 265.242188 1180.769531 303.566406 1188.710938 327.867188 C 1193.605469 342.851562 1194.535156 349.339844 1194.691406 369.613281 C 1194.867188 391.878906 1194.453125 394.480469 1189.027344 405.527344 C 1179.441406 425.054688 1164.476562 434.171875 1149.019531 429.902344 C 1138.453125 426.984375 1130.121094 419.027344 1123.492188 405.527344 C 1118.066406 394.480469 1117.65625 391.878906 1117.832031 369.613281 C 1117.988281 349.339844 1118.914062 342.851562 1123.808594 327.867188 C 1130.066406 308.71875 1135.925781 296.078125 1147.25 277.246094 C 1151.226562 270.648438 1155.273438 265.246094 1156.257812 265.242188 Z M 1156.257812 265.242188 " fill-opacity="1" fill-rule="nonzero"/></g></svg>