<svg xmlns="http://www.w3.org/2000/svg" xmlns:xlink="http://www.w3.org/1999/xlink" width="2048" zoomAndPan="magnify" viewBox="0 0 1536 1535.999932" height="2048" preserveAspectRatio="xMidYMid meet" version="1.0"><defs><clipPath id="ffccf77d9b"><path d="M 112 969 L 1446 969 L 1446 1439.953125 L 112 1439.953125 Z M 112 969 " clip-rule="nonzero"/></clipPath><clipPath id="e3679d9c8c"><path d="M 36.519531 660 L 213 660 L 213 804 L 36.519531 804 Z M 36.519531 660 " clip-rule="nonzero"/></clipPath><clipPath id="fec8e38daa"><path d="M 1323 660 L 1499.769531 660 L 1499.769531 804 L 1323 804 Z M 1323 660 " clip-rule="nonzero"/></clipPath><clipPath id="31ae5d3983"><path d="M 197 95.953125 L 301 95.953125 L 301 318 L 197 318 Z M 197 95.953125 " clip-rule="nonzero"/></clipPath><clipPath id="61bdd51fc1"><path d="M 716 95.953125 L 820 95.953125 L 820 318 L 716 318 Z M 716 95.953125 " clip-rule="nonzero"/></clipPath><clipPath id="374cde51e2"><path d="M 1235 95.953125 L 1339 95.953125 L 1339 318 L 1235 318 Z M 1235 95.953125 " clip-rule="nonzero"/></clipPath><clipPath id="3f4584934f"><path d="M 112 969 L 1446 969 L 1446 1439.953125 L 112 1439.953125 Z M 112 969 " clip-rule="nonzero"/></clipPath><clipPath id="fd6b49b81d"><path d="M 36.519531 660 L 213 660 L 213 804 L 36.519531 804 Z M 36.519531 660 " clip-rule="nonzero"/></clipPath><clipPath id="22f7f4b154"><path d="M 1323 660 L 1499.769531 660 L 1499.769531 804 L 1323 804 Z M 1323 660 " clip-rule="nonzero"/></clipPath><clipPath id="c6aeb569d2"><path d="M 197 95.953125 L 301 95.953125 L 301 318 L 197 318 Z M 197 95.953125 " clip-rule="nonzero"/></clipPath><clipPath id="828442b756"><path d="M 716 95.953125 L 820 95.953125 L 820 318 L 716 318 Z M 716 95.953125 " clip-rule="nonzero"/></clipPath><clipPath id="ea4f7b32a2"><path d="M 1235 95.953125 L 1339 95.953125 L 1339 318 L 1235 318 Z M 1235 95.953125 " clip-rule="nonzero"/></clipPath></defs><g clip-path="url(#ffccf77d9b)"><path fill="#556b2f" d="M 1288.726562 969.441406 C 1295.738281 969.445312 1301.601562 974.773438 1302.277344 981.753906 L 1326.386719 1230.835938 C 1342.28125 1244.285156 1355.539062 1260.527344 1364.042969 1277.71875 C 1373.371094 1296.59375 1374.171875 1300.246094 1374.878906 1326.804688 C 1375.574219 1352.605469 1376.285156 1356.011719 1381.867188 1360.535156 C 1385.285156 1363.304688 1390.277344 1365.5625 1392.972656 1365.5625 C 1401.332031 1365.5625 1412.261719 1354.71875 1414.175781 1344.515625 C 1415.167969 1339.207031 1416.59375 1334.871094 1417.339844 1334.871094 C 1418.089844 1334.878906 1422.359375 1337.492188 1426.851562 1340.683594 C 1447.46875 1355.367188 1452.152344 1388.664062 1435.871094 1404.9375 C 1429.035156 1411.777344 1422.507812 1414.1875 1395.722656 1419.804688 C 1306.132812 1438.59375 1186.347656 1444.839844 1079.9375 1436.269531 C 1058.832031 1434.566406 1058.5 1434.429688 1062.492188 1428.726562 C 1067.824219 1421.109375 1067.679688 1408.9375 1062.183594 1403.441406 C 1053.339844 1394.597656 1045.671875 1395.328125 1024.257812 1407.082031 C 1012.945312 1413.289062 998.449219 1420.214844 992.03125 1422.480469 C 953.710938 1436 841.574219 1440.867188 783.34375 1431.542969 C 712.734375 1420.230469 679.726562 1407.226562 649.855469 1378.941406 C 630.171875 1360.296875 620.6875 1358.5 610.957031 1371.597656 C 603.84375 1381.160156 605.996094 1390.1875 618.757812 1404.320312 L 628.433594 1415.03125 L 612.414062 1416.9375 C 539.386719 1425.632812 508.21875 1427.601562 423.367188 1428.917969 C 303.976562 1430.78125 230.484375 1425.296875 169.464844 1409.964844 C 142.972656 1403.308594 112.257812 1389.65625 112.273438 1384.542969 C 112.292969 1378.105469 122.675781 1363.628906 132.828125 1355.886719 C 147.128906 1344.976562 166.347656 1339.824219 184.941406 1341.917969 C 197.5625 1343.335938 201.53125 1342.71875 206.445312 1338.566406 C 221.625 1325.742188 214.878906 1308.777344 192.3125 1303.054688 L 179.125 1299.703125 L 187.632812 1282.675781 C 194.011719 1269.910156 200.96875 1261.421875 212.152344 1253.941406 L 236.296875 981.859375 C 236.921875 974.832031 242.808594 969.441406 249.863281 969.441406 C 256.878906 969.445312 262.746094 974.773438 263.421875 981.753906 L 291.136719 1268.15625 C 298.203125 1274.5 311.074219 1275.175781 316.929688 1269.320312 C 319.21875 1267.03125 322.609375 1260.441406 324.464844 1254.671875 C 333.09375 1227.859375 362.9375 1194.25 390.464844 1180.332031 C 402.8125 1174.09375 431.9375 1167.539062 447.558594 1167.492188 C 479.890625 1167.386719 525.386719 1181.035156 546.539062 1197.175781 C 567.351562 1213.066406 577.058594 1210.890625 589.867188 1187.488281 C 595.699219 1176.835938 633.132812 1147.050781 660.082031 1131.640625 C 683.546875 1118.207031 705.734375 1109.851562 731.722656 1104.644531 C 735.277344 1103.929688 738.875 1103.3125 742.511719 1102.796875 L 753.242188 981.859375 C 753.863281 974.832031 759.75 969.441406 766.8125 969.441406 C 773.824219 969.445312 779.6875 974.773438 780.371094 981.753906 L 791.980469 1101.722656 C 813.273438 1103.671875 834.679688 1108.632812 854.9375 1116.5 C 890.511719 1130.308594 912.984375 1147.8125 953.558594 1193.316406 C 972.328125 1214.363281 978.796875 1216.410156 990.269531 1204.933594 C 999.496094 1195.707031 997.734375 1185.117188 984.234375 1168.644531 C 978.871094 1162.09375 974.484375 1155.542969 974.484375 1154.066406 C 974.484375 1149.753906 999.566406 1140.199219 1020.410156 1136.566406 C 1055.765625 1130.410156 1103.691406 1138.402344 1139.335938 1156.398438 C 1156.859375 1165.246094 1159.355469 1168.75 1150.203125 1171.65625 C 1142.296875 1174.167969 1135.753906 1185.195312 1136.820312 1194.195312 C 1137.335938 1198.507812 1141.058594 1204.257812 1145.453125 1207.527344 C 1152.414062 1212.699219 1154.085938 1212.898438 1162.191406 1209.542969 C 1194.917969 1195.996094 1201.273438 1194.777344 1232.59375 1196.003906 C 1241.097656 1196.339844 1249.027344 1196.984375 1255.988281 1197.839844 L 1275.15625 981.859375 C 1275.777344 974.832031 1281.664062 969.441406 1288.726562 969.441406 Z M 1288.726562 969.441406 " fill-opacity="1" fill-rule="nonzero"/></g><path fill="#556b2f" d="M 72.535156 844.914062 C 97.3125 847.421875 132.390625 859.6875 152.019531 872.722656 C 172.035156 886.007812 196.035156 911.820312 203.871094 928.488281 C 207.734375 936.710938 209.925781 946.796875 209.925781 956.367188 C 209.925781 969.003906 208.722656 972.574219 202.253906 979.042969 C 195.257812 986.039062 193.203125 986.59375 179.054688 985.316406 C 131.414062 981.003906 83.953125 931.816406 60.277344 862.21875 L 53.738281 843.003906 Z M 72.535156 844.914062 " fill-opacity="1" fill-rule="nonzero"/><path fill="#556b2f" d="M 437.578125 862.601562 C 414.035156 931.800781 366.449219 981.011719 318.921875 985.316406 C 304.777344 986.59375 302.722656 986.039062 295.730469 979.042969 C 289.261719 972.574219 288.058594 969.003906 288.058594 956.367188 C 288.058594 936.820312 296.027344 920.085938 315.164062 899.40625 C 340.0625 872.519531 369.109375 856.160156 406.648438 847.898438 C 415.851562 845.875 428.019531 844.113281 433.683594 843.984375 L 443.988281 843.765625 Z M 437.578125 862.601562 " fill-opacity="1" fill-rule="nonzero"/><path fill="#556b2f" d="M 591.542969 844.914062 C 616.320312 847.421875 651.398438 859.6875 671.027344 872.722656 C 691.042969 886.007812 715.046875 911.820312 722.878906 928.488281 C 726.742188 936.710938 728.933594 946.796875 728.933594 956.367188 C 728.933594 969.003906 727.722656 972.574219 721.257812 979.042969 C 714.265625 986.039062 712.210938 986.59375 698.0625 985.316406 C 650.425781 981.003906 602.957031 931.816406 579.277344 862.21875 L 572.75 843.003906 Z M 591.542969 844.914062 " fill-opacity="1" fill-rule="nonzero"/><path fill="#556b2f" d="M 956.582031 862.601562 C 933.046875 931.800781 885.457031 981.011719 837.929688 985.316406 C 823.785156 986.59375 821.730469 986.039062 814.738281 979.042969 C 808.273438 972.574219 807.058594 969.003906 807.058594 956.367188 C 807.058594 936.820312 815.035156 920.085938 834.175781 899.40625 C 859.070312 872.519531 888.121094 856.160156 925.652344 847.898438 C 934.859375 845.875 947.027344 844.113281 952.691406 843.984375 L 962.996094 843.765625 Z M 956.582031 862.601562 " fill-opacity="1" fill-rule="nonzero"/><path fill="#556b2f" d="M 1110.550781 844.914062 C 1135.328125 847.421875 1170.40625 859.6875 1190.035156 872.722656 C 1210.050781 886.007812 1234.050781 911.820312 1241.886719 928.488281 C 1245.75 936.710938 1247.933594 946.796875 1247.933594 956.367188 C 1247.933594 969.003906 1246.734375 972.574219 1240.265625 979.042969 C 1233.269531 986.039062 1231.21875 986.59375 1217.070312 985.316406 C 1169.429688 981.003906 1121.960938 931.816406 1098.292969 862.21875 L 1091.75 843.003906 Z M 1110.550781 844.914062 " fill-opacity="1" fill-rule="nonzero"/><path fill="#556b2f" d="M 1475.589844 862.601562 C 1452.050781 931.800781 1404.464844 981.011719 1356.9375 985.316406 C 1342.789062 986.59375 1340.738281 986.039062 1333.742188 979.042969 C 1327.277344 972.574219 1326.066406 969.003906 1326.066406 956.367188 C 1326.066406 936.828125 1334.035156 920.085938 1353.175781 899.40625 C 1378.070312 872.519531 1407.121094 856.160156 1444.660156 847.898438 C 1453.867188 845.875 1466.039062 844.113281 1471.703125 843.984375 L 1481.996094 843.765625 Z M 1475.589844 862.601562 " fill-opacity="1" fill-rule="nonzero"/><g clip-path="url(#e3679d9c8c)"><path fill="#556b2f" d="M 36.921875 663.136719 C 36.925781 660.292969 40.390625 659.796875 51.574219 661.046875 C 138.628906 670.769531 182.738281 694.371094 205.574219 743.425781 C 217.730469 769.546875 214.363281 793.597656 197.566406 800.609375 C 168.148438 812.902344 105.628906 778.304688 71.933594 731.082031 C 59.410156 713.535156 36.921875 669.890625 36.921875 663.136719 Z M 36.921875 663.136719 " fill-opacity="1" fill-rule="nonzero"/></g><path fill="#556b2f" d="M 430.363281 662.722656 C 460.691406 659.253906 461.0625 659.261719 461.0625 663.242188 C 461.054688 669.921875 438.484375 713.65625 426.050781 731.082031 C 392.355469 778.304688 329.832031 812.902344 300.410156 800.609375 C 265.617188 786.066406 293.957031 714.476562 345.414062 686.925781 C 363.589844 677.203125 403.679688 665.777344 430.363281 662.722656 Z M 430.363281 662.722656 " fill-opacity="1" fill-rule="nonzero"/><path fill="#556b2f" d="M 555.933594 663.136719 C 555.933594 660.292969 559.394531 659.796875 570.582031 661.046875 C 657.636719 670.769531 701.738281 694.371094 724.578125 743.425781 C 736.738281 769.546875 733.371094 793.597656 716.574219 800.609375 C 687.15625 812.902344 624.632812 778.304688 590.941406 731.082031 C 578.417969 713.535156 555.933594 669.890625 555.933594 663.136719 Z M 555.933594 663.136719 " fill-opacity="1" fill-rule="nonzero"/><path fill="#556b2f" d="M 949.371094 662.722656 C 979.699219 659.253906 980.0625 659.261719 980.0625 663.242188 C 980.054688 669.921875 957.484375 713.65625 945.054688 731.082031 C 911.359375 778.304688 848.839844 812.902344 819.417969 800.609375 C 784.621094 786.074219 812.96875 714.476562 864.421875 686.925781 C 882.597656 677.203125 922.6875 665.777344 949.371094 662.722656 Z M 949.371094 662.722656 " fill-opacity="1" fill-rule="nonzero"/><path fill="#556b2f" d="M 1074.9375 663.136719 C 1074.945312 660.292969 1078.410156 659.796875 1089.589844 661.046875 C 1176.644531 670.769531 1220.746094 694.371094 1243.582031 743.425781 C 1255.742188 769.546875 1252.378906 793.597656 1235.582031 800.609375 C 1206.164062 812.902344 1143.648438 778.304688 1109.949219 731.082031 C 1097.429688 713.535156 1074.9375 669.890625 1074.9375 663.136719 Z M 1074.9375 663.136719 " fill-opacity="1" fill-rule="nonzero"/><g clip-path="url(#fec8e38daa)"><path fill="#556b2f" d="M 1468.382812 662.722656 C 1498.707031 659.253906 1499.070312 659.261719 1499.070312 663.242188 C 1499.0625 669.921875 1476.496094 713.65625 1464.058594 731.082031 C 1430.367188 778.304688 1367.847656 812.902344 1338.425781 800.609375 C 1303.628906 786.074219 1331.976562 714.476562 1383.429688 686.925781 C 1401.605469 677.203125 1441.699219 665.777344 1468.382812 662.722656 Z M 1468.382812 662.722656 " fill-opacity="1" fill-rule="nonzero"/></g><path fill="#556b2f" d="M 39.710938 475.699219 C 39.710938 472.761719 73.113281 477.488281 99.707031 484.183594 C 132.804688 492.515625 155.472656 504.738281 176.667969 525.664062 C 200.085938 548.785156 211.109375 570.40625 211.234375 593.445312 C 211.3125 608.195312 210.488281 610.5625 203.097656 616.925781 C 195.707031 623.285156 193.132812 623.867188 177.644531 622.621094 C 140.808594 619.667969 96.195312 586.617188 70.742188 543.449219 C 60.136719 525.453125 39.71875 480.878906 39.710938 475.699219 Z M 39.710938 475.699219 " fill-opacity="1" fill-rule="nonzero"/><path fill="#556b2f" d="M 434.550781 476.992188 C 446.816406 475.164062 457.207031 474.496094 457.660156 475.507812 C 459.0625 478.828125 439.265625 523.050781 427.242188 543.449219 C 401.789062 586.617188 357.175781 619.660156 320.339844 622.621094 C 304.851562 623.867188 302.269531 623.285156 294.882812 616.925781 C 287.488281 610.5625 286.671875 608.195312 286.75 593.445312 C 286.875 570.40625 297.890625 548.785156 321.308594 525.664062 C 348.894531 498.425781 379.746094 485.164062 434.550781 476.992188 Z M 434.550781 476.992188 " fill-opacity="1" fill-rule="nonzero"/><path fill="#556b2f" d="M 558.71875 475.699219 C 558.71875 472.761719 592.121094 477.488281 618.710938 484.183594 C 651.816406 492.515625 674.480469 504.738281 695.679688 525.664062 C 719.097656 548.785156 730.121094 570.40625 730.238281 593.445312 C 730.324219 608.195312 729.496094 610.5625 722.105469 616.925781 C 714.714844 623.285156 712.136719 623.867188 696.652344 622.621094 C 659.816406 619.667969 615.203125 586.617188 589.75 543.449219 C 579.144531 525.453125 558.726562 480.878906 558.71875 475.699219 Z M 558.71875 475.699219 " fill-opacity="1" fill-rule="nonzero"/><path fill="#556b2f" d="M 953.558594 476.992188 C 965.824219 475.164062 976.222656 474.496094 976.664062 475.507812 C 978.074219 478.828125 958.273438 523.050781 946.25 543.449219 C 920.800781 586.617188 876.1875 619.660156 839.347656 622.621094 C 823.855469 623.867188 821.28125 623.285156 813.890625 616.925781 C 806.496094 610.5625 805.675781 608.195312 805.761719 593.445312 C 805.882812 570.40625 816.894531 548.785156 840.316406 525.664062 C 867.902344 498.425781 898.75 485.164062 953.558594 476.992188 Z M 953.558594 476.992188 " fill-opacity="1" fill-rule="nonzero"/><path fill="#556b2f" d="M 1077.726562 475.699219 C 1077.726562 472.761719 1111.121094 477.488281 1137.71875 484.183594 C 1170.816406 492.515625 1193.492188 504.730469 1214.6875 525.664062 C 1238.105469 548.785156 1249.121094 570.40625 1249.246094 593.445312 C 1249.324219 608.195312 1248.503906 610.5625 1241.113281 616.925781 C 1233.722656 623.285156 1231.144531 623.867188 1215.652344 622.621094 C 1178.820312 619.660156 1134.203125 586.617188 1108.757812 543.449219 C 1098.144531 525.453125 1077.734375 480.878906 1077.726562 475.699219 Z M 1077.726562 475.699219 " fill-opacity="1" fill-rule="nonzero"/><path fill="#556b2f" d="M 1472.5625 476.992188 C 1484.835938 475.164062 1495.234375 474.496094 1495.679688 475.507812 C 1497.082031 478.828125 1477.273438 523.050781 1465.25 543.449219 C 1439.800781 586.617188 1395.1875 619.667969 1358.347656 622.621094 C 1342.863281 623.867188 1340.285156 623.285156 1332.894531 616.925781 C 1325.503906 610.5625 1324.683594 608.195312 1324.761719 593.445312 C 1324.886719 570.40625 1335.910156 548.785156 1359.328125 525.664062 C 1386.914062 498.425781 1417.765625 485.164062 1472.5625 476.992188 Z M 1472.5625 476.992188 " fill-opacity="1" fill-rule="nonzero"/><path fill="#556b2f" d="M 58.933594 285.691406 C 64.023438 285.691406 118.734375 309.988281 137.1875 320.445312 C 177.824219 343.464844 203.066406 367.976562 212.71875 393.78125 C 219.707031 412.453125 218.277344 428.535156 209.058594 434.996094 C 200.316406 441.113281 174.035156 440.273438 155.324219 433.273438 C 135.355469 425.804688 109.320312 400.734375 93.335938 373.589844 C 83.355469 356.644531 63.566406 311.011719 57.9375 291.972656 C 56.867188 288.34375 57.285156 285.691406 58.933594 285.691406 Z M 58.933594 285.691406 " fill-opacity="1" fill-rule="nonzero"/><path fill="#556b2f" d="M 406.648438 298.148438 C 439.417969 283.910156 442.605469 283.320312 440.046875 291.972656 C 434.417969 311.011719 414.628906 356.644531 404.648438 373.589844 C 388.664062 400.734375 362.621094 425.804688 342.652344 433.273438 C 323.941406 440.273438 297.667969 441.113281 288.925781 434.996094 C 273.691406 424.324219 280.96875 389.367188 303.683594 364.101562 C 325.527344 339.804688 356.644531 319.875 406.648438 298.148438 Z M 406.648438 298.148438 " fill-opacity="1" fill-rule="nonzero"/><path fill="#556b2f" d="M 577.941406 285.691406 C 583.039062 285.695312 637.746094 309.988281 656.199219 320.445312 C 696.832031 343.464844 722.074219 367.976562 731.730469 393.78125 C 738.714844 412.453125 737.285156 428.535156 728.066406 434.996094 C 719.324219 441.113281 693.042969 440.273438 674.332031 433.273438 C 654.363281 425.804688 628.328125 400.734375 612.347656 373.589844 C 602.367188 356.644531 582.570312 311.011719 576.941406 291.972656 C 575.867188 288.34375 576.292969 285.691406 577.941406 285.691406 Z M 577.941406 285.691406 " fill-opacity="1" fill-rule="nonzero"/><path fill="#556b2f" d="M 925.652344 298.148438 C 958.425781 283.910156 961.609375 283.320312 959.054688 291.972656 C 953.425781 311.011719 933.628906 356.644531 923.648438 373.589844 C 907.664062 400.734375 881.628906 425.804688 861.660156 433.273438 C 842.953125 440.273438 816.675781 441.113281 807.933594 434.996094 C 792.703125 424.324219 799.972656 389.367188 822.691406 364.101562 C 844.535156 339.804688 875.648438 319.875 925.652344 298.148438 Z M 925.652344 298.148438 " fill-opacity="1" fill-rule="nonzero"/><path fill="#556b2f" d="M 1096.949219 285.691406 C 1102.054688 285.699219 1156.753906 309.988281 1175.207031 320.445312 C 1215.839844 343.464844 1241.078125 367.976562 1250.734375 393.78125 C 1257.722656 412.453125 1256.285156 428.535156 1247.066406 434.996094 C 1238.324219 441.113281 1212.050781 440.273438 1193.339844 433.273438 C 1173.371094 425.804688 1147.335938 400.734375 1131.355469 373.589844 C 1121.375 356.644531 1101.578125 311.011719 1095.949219 291.972656 C 1094.875 288.34375 1095.304688 285.691406 1096.949219 285.691406 Z M 1096.949219 285.691406 " fill-opacity="1" fill-rule="nonzero"/><path fill="#556b2f" d="M 1444.660156 298.148438 C 1477.425781 283.910156 1480.617188 283.320312 1478.0625 291.972656 C 1472.4375 311.011719 1452.640625 356.644531 1442.660156 373.589844 C 1426.671875 400.734375 1400.636719 425.804688 1380.667969 433.273438 C 1361.957031 440.273438 1335.675781 441.113281 1326.933594 434.996094 C 1311.703125 424.320312 1318.988281 389.367188 1341.703125 364.101562 C 1363.546875 339.808594 1394.65625 319.875 1444.660156 298.148438 Z M 1444.660156 298.148438 " fill-opacity="1" fill-rule="nonzero"/><g clip-path="url(#31ae5d3983)"><path fill="#556b2f" d="M 248.992188 95.949219 C 255.210938 95.957031 281.75 147.183594 292.367188 179.664062 C 298.910156 199.695312 300.15625 208.367188 300.367188 235.46875 C 300.597656 265.230469 300.046875 268.710938 292.800781 283.472656 C 283.9375 301.519531 272.792969 312.15625 258.667969 316.058594 C 238.003906 321.761719 218.003906 309.578125 205.183594 283.472656 C 197.9375 268.710938 197.386719 265.234375 197.617188 235.46875 C 197.828125 208.367188 199.066406 199.691406 205.613281 179.664062 C 213.976562 154.066406 221.804688 137.171875 236.949219 111.996094 C 242.257812 103.171875 247.679688 95.949219 248.992188 95.949219 Z M 248.992188 95.949219 " fill-opacity="1" fill-rule="nonzero"/></g><g clip-path="url(#61bdd51fc1)"><path fill="#556b2f" d="M 767.996094 95.949219 C 774.222656 95.964844 800.753906 147.183594 811.371094 179.664062 C 817.921875 199.695312 819.160156 208.367188 819.367188 235.46875 C 819.597656 265.234375 819.046875 268.710938 811.800781 283.472656 C 798.980469 309.578125 778.984375 321.765625 758.320312 316.058594 C 744.195312 312.15625 733.054688 301.519531 724.191406 283.472656 C 716.945312 268.710938 716.398438 265.234375 716.628906 235.46875 C 716.832031 208.367188 718.074219 199.695312 724.621094 179.664062 C 732.988281 154.066406 740.808594 137.171875 755.957031 111.996094 C 761.269531 103.171875 766.6875 95.949219 767.996094 95.949219 Z M 767.996094 95.949219 " fill-opacity="1" fill-rule="nonzero"/></g><g clip-path="url(#374cde51e2)"><path fill="#556b2f" d="M 1287.003906 95.949219 C 1293.214844 95.949219 1319.769531 147.179688 1330.386719 179.664062 C 1336.929688 199.691406 1338.167969 208.367188 1338.378906 235.46875 C 1338.613281 265.234375 1338.0625 268.710938 1330.808594 283.472656 C 1317.992188 309.578125 1297.992188 321.761719 1277.328125 316.058594 C 1263.199219 312.15625 1252.066406 301.519531 1243.207031 283.472656 C 1235.953125 268.710938 1235.402344 265.234375 1235.636719 235.46875 C 1235.847656 208.367188 1237.085938 199.695312 1243.628906 179.664062 C 1251.996094 154.066406 1259.824219 137.171875 1274.964844 111.996094 C 1280.273438 103.179688 1285.6875 95.957031 1287.003906 95.949219 Z M 1287.003906 95.949219 " fill-opacity="1" fill-rule="nonzero"/></g><g clip-path="url(#3f4584934f)"><path fill="#556b2f" d="M 1288.726562 969.441406 C 1295.738281 969.445312 1301.601562 974.773438 1302.277344 981.753906 L 1326.386719 1230.835938 C 1342.28125 1244.285156 1355.539062 1260.527344 1364.042969 1277.71875 C 1373.371094 1296.59375 1374.171875 1300.246094 1374.878906 1326.804688 C 1375.574219 1352.605469 1376.285156 1356.011719 1381.867188 1360.535156 C 1385.285156 1363.304688 1390.277344 1365.5625 1392.972656 1365.5625 C 1401.332031 1365.5625 1412.261719 1354.71875 1414.175781 1344.515625 C 1415.167969 1339.207031 1416.59375 1334.871094 1417.339844 1334.871094 C 1418.089844 1334.878906 1422.359375 1337.492188 1426.851562 1340.683594 C 1447.46875 1355.367188 1452.152344 1388.664062 1435.871094 1404.9375 C 1429.035156 1411.777344 1422.507812 1414.1875 1395.722656 1419.804688 C 1306.132812 1438.59375 1186.347656 1444.839844 1079.9375 1436.269531 C 1058.832031 1434.566406 1058.5 1434.429688 1062.492188 1428.726562 C 1067.824219 1421.109375 1067.679688 1408.9375 1062.183594 1403.441406 C 1053.339844 1394.597656 1045.671875 1395.328125 1024.257812 1407.082031 C 1012.945312 1413.289062 998.449219 1420.214844 992.03125 1422.480469 C 953.710938 1436 841.574219 1440.867188 783.34375 1431.542969 C 712.734375 1420.230469 679.726562 1407.226562 649.855469 1378.941406 C 630.171875 1360.296875 620.6875 1358.5 610.957031 1371.597656 C 603.84375 1381.160156 605.996094 1390.1875 618.757812 1404.320312 L 628.433594 1415.03125 L 612.414062 1416.9375 C 539.386719 1425.632812 508.21875 1427.601562 423.367188 1428.917969 C 303.976562 1430.78125 230.484375 1425.296875 169.464844 1409.964844 C 142.972656 1403.308594 112.257812 1389.65625 112.273438 1384.542969 C 112.292969 1378.105469 122.675781 1363.628906 132.828125 1355.886719 C 147.128906 1344.976562 166.347656 1339.824219 184.941406 1341.917969 C 197.5625 1343.335938 201.53125 1342.71875 206.445312 1338.566406 C 221.625 1325.742188 214.878906 1308.777344 192.3125 1303.054688 L 179.125 1299.703125 L 187.632812 1282.675781 C 194.011719 1269.910156 200.96875 1261.421875 212.152344 1253.941406 L 236.296875 981.859375 C 236.921875 974.832031 242.808594 969.441406 249.863281 969.441406 C 256.878906 969.445312 262.746094 974.773438 263.421875 981.753906 L 291.136719 1268.15625 C 298.203125 1274.5 311.074219 1275.175781 316.929688 1269.320312 C 319.21875 1267.03125 322.609375 1260.441406 324.464844 1254.671875 C 333.09375 1227.859375 362.9375 1194.25 390.464844 1180.332031 C 402.8125 1174.09375 431.9375 1167.539062 447.558594 1167.492188 C 479.890625 1167.386719 525.386719 1181.035156 546.539062 1197.175781 C 567.351562 1213.066406 577.058594 1210.890625 589.867188 1187.488281 C 595.699219 1176.835938 633.132812 1147.050781 660.082031 1131.640625 C 683.546875 1118.207031 705.734375 1109.851562 731.722656 1104.644531 C 735.277344 1103.929688 738.875 1103.3125 742.511719 1102.796875 L 753.242188 981.859375 C 753.863281 974.832031 759.75 969.441406 766.8125 969.441406 C 773.824219 969.445312 779.6875 974.773438 780.371094 981.753906 L 791.980469 1101.722656 C 813.273438 1103.671875 834.679688 1108.632812 854.9375 1116.5 C 890.511719 1130.308594 912.984375 1147.8125 953.558594 1193.316406 C 972.328125 1214.363281 978.796875 1216.410156 990.269531 1204.933594 C 999.496094 1195.707031 997.734375 1185.117188 984.234375 1168.644531 C 978.871094 1162.09375 974.484375 1155.542969 974.484375 1154.066406 C 974.484375 1149.753906 999.566406 1140.199219 1020.410156 1136.566406 C 1055.765625 1130.410156 1103.691406 1138.402344 1139.335938 1156.398438 C 1156.859375 1165.246094 1159.355469 1168.75 1150.203125 1171.65625 C 1142.296875 1174.167969 1135.753906 1185.195312 1136.820312 1194.195312 C 1137.335938 1198.507812 1141.058594 1204.257812 1145.453125 1207.527344 C 1152.414062 1212.699219 1154.085938 1212.898438 1162.191406 1209.542969 C 1194.917969 1195.996094 1201.273438 1194.777344 1232.59375 1196.003906 C 1241.097656 1196.339844 1249.027344 1196.984375 1255.988281 1197.839844 L 1275.15625 981.859375 C 1275.777344 974.832031 1281.664062 969.441406 1288.726562 969.441406 Z M 1288.726562 969.441406 " fill-opacity="1" fill-rule="nonzero"/></g><path fill="#556b2f" d="M 72.535156 844.914062 C 97.3125 847.421875 132.390625 859.6875 152.019531 872.722656 C 172.035156 886.007812 196.035156 911.820312 203.871094 928.488281 C 207.734375 936.710938 209.925781 946.796875 209.925781 956.367188 C 209.925781 969.003906 208.722656 972.574219 202.253906 979.042969 C 195.257812 986.039062 193.203125 986.59375 179.054688 985.316406 C 131.414062 981.003906 83.953125 931.816406 60.277344 862.21875 L 53.738281 843.003906 Z M 72.535156 844.914062 " fill-opacity="1" fill-rule="nonzero"/><path fill="#556b2f" d="M 437.578125 862.601562 C 414.035156 931.800781 366.449219 981.011719 318.921875 985.316406 C 304.777344 986.59375 302.722656 986.039062 295.730469 979.042969 C 289.261719 972.574219 288.058594 969.003906 288.058594 956.367188 C 288.058594 936.820312 296.027344 920.085938 315.164062 899.40625 C 340.0625 872.519531 369.109375 856.160156 406.648438 847.898438 C 415.851562 845.875 428.019531 844.113281 433.683594 843.984375 L 443.988281 843.765625 Z M 437.578125 862.601562 " fill-opacity="1" fill-rule="nonzero"/><path fill="#556b2f" d="M 591.542969 844.914062 C 616.320312 847.421875 651.398438 859.6875 671.027344 872.722656 C 691.042969 886.007812 715.046875 911.820312 722.878906 928.488281 C 726.742188 936.710938 728.933594 946.796875 728.933594 956.367188 C 728.933594 969.003906 727.722656 972.574219 721.257812 979.042969 C 714.265625 986.039062 712.210938 986.59375 698.0625 985.316406 C 650.425781 981.003906 602.957031 931.816406 579.277344 862.21875 L 572.75 843.003906 Z M 591.542969 844.914062 " fill-opacity="1" fill-rule="nonzero"/><path fill="#556b2f" d="M 956.582031 862.601562 C 933.046875 931.800781 885.457031 981.011719 837.929688 985.316406 C 823.785156 986.59375 821.730469 986.039062 814.738281 979.042969 C 808.273438 972.574219 807.058594 969.003906 807.058594 956.367188 C 807.058594 936.820312 815.035156 920.085938 834.175781 899.40625 C 859.070312 872.519531 888.121094 856.160156 925.652344 847.898438 C 934.859375 845.875 947.027344 844.113281 952.691406 843.984375 L 962.996094 843.765625 Z M 956.582031 862.601562 " fill-opacity="1" fill-rule="nonzero"/><path fill="#556b2f" d="M 1110.550781 844.914062 C 1135.328125 847.421875 1170.40625 859.6875 1190.035156 872.722656 C 1210.050781 886.007812 1234.050781 911.820312 1241.886719 928.488281 C 1245.75 936.710938 1247.933594 946.796875 1247.933594 956.367188 C 1247.933594 969.003906 1246.734375 972.574219 1240.265625 979.042969 C 1233.269531 986.039062 1231.21875 986.59375 1217.070312 985.316406 C 1169.429688 981.003906 1121.960938 931.816406 1098.292969 862.21875 L 1091.75 843.003906 Z M 1110.550781 844.914062 " fill-opacity="1" fill-rule="nonzero"/><path fill="#556b2f" d="M 1475.589844 862.601562 C 1452.050781 931.800781 1404.464844 981.011719 1356.9375 985.316406 C 1342.789062 986.59375 1340.738281 986.039062 1333.742188 979.042969 C 1327.277344 972.574219 1326.066406 969.003906 1326.066406 956.367188 C 1326.066406 936.828125 1334.035156 920.085938 1353.175781 899.40625 C 1378.070312 872.519531 1407.121094 856.160156 1444.660156 847.898438 C 1453.867188 845.875 1466.039062 844.113281 1471.703125 843.984375 L 1481.996094 843.765625 Z M 1475.589844 862.601562 " fill-opacity="1" fill-rule="nonzero"/><g clip-path="url(#fd6b49b81d)"><path fill="#556b2f" d="M 36.921875 663.136719 C 36.925781 660.292969 40.390625 659.796875 51.574219 661.046875 C 138.628906 670.769531 182.738281 694.371094 205.574219 743.425781 C 217.730469 769.546875 214.363281 793.597656 197.566406 800.609375 C 168.148438 812.902344 105.628906 778.304688 71.933594 731.082031 C 59.410156 713.535156 36.921875 669.890625 36.921875 663.136719 Z M 36.921875 663.136719 " fill-opacity="1" fill-rule="nonzero"/></g><path fill="#556b2f" d="M 430.363281 662.722656 C 460.691406 659.253906 461.0625 659.261719 461.0625 663.242188 C 461.054688 669.921875 438.484375 713.65625 426.050781 731.082031 C 392.355469 778.304688 329.832031 812.902344 300.410156 800.609375 C 265.617188 786.066406 293.957031 714.476562 345.414062 686.925781 C 363.589844 677.203125 403.679688 665.777344 430.363281 662.722656 Z M 430.363281 662.722656 " fill-opacity="1" fill-rule="nonzero"/><path fill="#556b2f" d="M 555.933594 663.136719 C 555.933594 660.292969 559.394531 659.796875 570.582031 661.046875 C 657.636719 670.769531 701.738281 694.371094 724.578125 743.425781 C 736.738281 769.546875 733.371094 793.597656 716.574219 800.609375 C 687.15625 812.902344 624.632812 778.304688 590.941406 731.082031 C 578.417969 713.535156 555.933594 669.890625 555.933594 663.136719 Z M 555.933594 663.136719 " fill-opacity="1" fill-rule="nonzero"/><path fill="#556b2f" d="M 949.371094 662.722656 C 979.699219 659.253906 980.0625 659.261719 980.0625 663.242188 C 980.054688 669.921875 957.484375 713.65625 945.054688 731.082031 C 911.359375 778.304688 848.839844 812.902344 819.417969 800.609375 C 784.621094 786.074219 812.96875 714.476562 864.421875 686.925781 C 882.597656 677.203125 922.6875 665.777344 949.371094 662.722656 Z M 949.371094 662.722656 " fill-opacity="1" fill-rule="nonzero"/><path fill="#556b2f" d="M 1074.9375 663.136719 C 1074.945312 660.292969 1078.410156 659.796875 1089.589844 661.046875 C 1176.644531 670.769531 1220.746094 694.371094 1243.582031 743.425781 C 1255.742188 769.546875 1252.378906 793.597656 1235.582031 800.609375 C 1206.164062 812.902344 1143.648438 778.304688 1109.949219 731.082031 C 1097.429688 713.535156 1074.9375 669.890625 1074.9375 663.136719 Z M 1074.9375 663.136719 " fill-opacity="1" fill-rule="nonzero"/><g clip-path="url(#22f7f4b154)"><path fill="#556b2f" d="M 1468.382812 662.722656 C 1498.707031 659.253906 1499.070312 659.261719 1499.070312 663.242188 C 1499.0625 669.921875 1476.496094 713.65625 1464.058594 731.082031 C 1430.367188 778.304688 1367.847656 812.902344 1338.425781 800.609375 C 1303.628906 786.074219 1331.976562 714.476562 1383.429688 686.925781 C 1401.605469 677.203125 1441.699219 665.777344 1468.382812 662.722656 Z M 1468.382812 662.722656 " fill-opacity="1" fill-rule="nonzero"/></g><path fill="#556b2f" d="M 39.710938 475.699219 C 39.710938 472.761719 73.113281 477.488281 99.707031 484.183594 C 132.804688 492.515625 155.472656 504.738281 176.667969 525.664062 C 200.085938 548.785156 211.109375 570.40625 211.234375 593.445312 C 211.3125 608.195312 210.488281 610.5625 203.097656 616.925781 C 195.707031 623.285156 193.132812 623.867188 177.644531 622.621094 C 140.808594 619.667969 96.195312 586.617188 70.742188 543.449219 C 60.136719 525.453125 39.71875 480.878906 39.710938 475.699219 Z M 39.710938 475.699219 " fill-opacity="1" fill-rule="nonzero"/><path fill="#556b2f" d="M 434.550781 476.992188 C 446.816406 475.164062 457.207031 474.496094 457.660156 475.507812 C 459.0625 478.828125 439.265625 523.050781 427.242188 543.449219 C 401.789062 586.617188 357.175781 619.660156 320.339844 622.621094 C 304.851562 623.867188 302.269531 623.285156 294.882812 616.925781 C 287.488281 610.5625 286.671875 608.195312 286.75 593.445312 C 286.875 570.40625 297.890625 548.785156 321.308594 525.664062 C 348.894531 498.425781 379.746094 485.164062 434.550781 476.992188 Z M 434.550781 476.992188 " fill-opacity="1" fill-rule="nonzero"/><path fill="#556b2f" d="M 558.71875 475.699219 C 558.71875 472.761719 592.121094 477.488281 618.710938 484.183594 C 651.816406 492.515625 674.480469 504.738281 695.679688 525.664062 C 719.097656 548.785156 730.121094 570.40625 730.238281 593.445312 C 730.324219 608.195312 729.496094 610.5625 722.105469 616.925781 C 714.714844 623.285156 712.136719 623.867188 696.652344 622.621094 C 659.816406 619.667969 615.203125 586.617188 589.75 543.449219 C 579.144531 525.453125 558.726562 480.878906 558.71875 475.699219 Z M 558.71875 475.699219 " fill-opacity="1" fill-rule="nonzero"/><path fill="#556b2f" d="M 953.558594 476.992188 C 965.824219 475.164062 976.222656 474.496094 976.664062 475.507812 C 978.074219 478.828125 958.273438 523.050781 946.25 543.449219 C 920.800781 586.617188 876.1875 619.660156 839.347656 622.621094 C 823.855469 623.867188 821.28125 623.285156 813.890625 616.925781 C 806.496094 610.5625 805.675781 608.195312 805.761719 593.445312 C 805.882812 570.40625 816.894531 548.785156 840.316406 525.664062 C 867.902344 498.425781 898.75 485.164062 953.558594 476.992188 Z M 953.558594 476.992188 " fill-opacity="1" fill-rule="nonzero"/><path fill="#556b2f" d="M 1077.726562 475.699219 C 1077.726562 472.761719 1111.121094 477.488281 1137.71875 484.183594 C 1170.816406 492.515625 1193.492188 504.730469 1214.6875 525.664062 C 1238.105469 548.785156 1249.121094 570.40625 1249.246094 593.445312 C 1249.324219 608.195312 1248.503906 610.5625 1241.113281 616.925781 C 1233.722656 623.285156 1231.144531 623.867188 1215.652344 622.621094 C 1178.820312 619.660156 1134.203125 586.617188 1108.757812 543.449219 C 1098.144531 525.453125 1077.734375 480.878906 1077.726562 475.699219 Z M 1077.726562 475.699219 " fill-opacity="1" fill-rule="nonzero"/><path fill="#556b2f" d="M 1472.5625 476.992188 C 1484.835938 475.164062 1495.234375 474.496094 1495.679688 475.507812 C 1497.082031 478.828125 1477.273438 523.050781 1465.25 543.449219 C 1439.800781 586.617188 1395.1875 619.667969 1358.347656 622.621094 C 1342.863281 623.867188 1340.285156 623.285156 1332.894531 616.925781 C 1325.503906 610.5625 1324.683594 608.195312 1324.761719 593.445312 C 1324.886719 570.40625 1335.910156 548.785156 1359.328125 525.664062 C 1386.914062 498.425781 1417.765625 485.164062 1472.5625 476.992188 Z M 1472.5625 476.992188 " fill-opacity="1" fill-rule="nonzero"/><path fill="#556b2f" d="M 58.933594 285.691406 C 64.023438 285.691406 118.734375 309.988281 137.1875 320.445312 C 177.824219 343.464844 203.066406 367.976562 212.71875 393.78125 C 219.707031 412.453125 218.277344 428.535156 209.058594 434.996094 C 200.316406 441.113281 174.035156 440.273438 155.324219 433.273438 C 135.355469 425.804688 109.320312 400.734375 93.335938 373.589844 C 83.355469 356.644531 63.566406 311.011719 57.9375 291.972656 C 56.867188 288.34375 57.285156 285.691406 58.933594 285.691406 Z M 58.933594 285.691406 " fill-opacity="1" fill-rule="nonzero"/><path fill="#556b2f" d="M 406.648438 298.148438 C 439.417969 283.910156 442.605469 283.320312 440.046875 291.972656 C 434.417969 311.011719 414.628906 356.644531 404.648438 373.589844 C 388.664062 400.734375 362.621094 425.804688 342.652344 433.273438 C 323.941406 440.273438 297.667969 441.113281 288.925781 434.996094 C 273.691406 424.324219 280.96875 389.367188 303.683594 364.101562 C 325.527344 339.804688 356.644531 319.875 406.648438 298.148438 Z M 406.648438 298.148438 " fill-opacity="1" fill-rule="nonzero"/><path fill="#556b2f" d="M 577.941406 285.691406 C 583.039062 285.695312 637.746094 309.988281 656.199219 320.445312 C 696.832031 343.464844 722.074219 367.976562 731.730469 393.78125 C 738.714844 412.453125 737.285156 428.535156 728.066406 434.996094 C 719.324219 441.113281 693.042969 440.273438 674.332031 433.273438 C 654.363281 425.804688 628.328125 400.734375 612.347656 373.589844 C 602.367188 356.644531 582.570312 311.011719 576.941406 291.972656 C 575.867188 288.34375 576.292969 285.691406 577.941406 285.691406 Z M 577.941406 285.691406 " fill-opacity="1" fill-rule="nonzero"/><path fill="#556b2f" d="M 925.652344 298.148438 C 958.425781 283.910156 961.609375 283.320312 959.054688 291.972656 C 953.425781 311.011719 933.628906 356.644531 923.648438 373.589844 C 907.664062 400.734375 881.628906 425.804688 861.660156 433.273438 C 842.953125 440.273438 816.675781 441.113281 807.933594 434.996094 C 792.703125 424.324219 799.972656 389.367188 822.691406 364.101562 C 844.535156 339.804688 875.648438 319.875 925.652344 298.148438 Z M 925.652344 298.148438 " fill-opacity="1" fill-rule="nonzero"/><path fill="#556b2f" d="M 1096.949219 285.691406 C 1102.054688 285.699219 1156.753906 309.988281 1175.207031 320.445312 C 1215.839844 343.464844 1241.078125 367.976562 1250.734375 393.78125 C 1257.722656 412.453125 1256.285156 428.535156 1247.066406 434.996094 C 1238.324219 441.113281 1212.050781 440.273438 1193.339844 433.273438 C 1173.371094 425.804688 1147.335938 400.734375 1131.355469 373.589844 C 1121.375 356.644531 1101.578125 311.011719 1095.949219 291.972656 C 1094.875 288.34375 1095.304688 285.691406 1096.949219 285.691406 Z M 1096.949219 285.691406 " fill-opacity="1" fill-rule="nonzero"/><path fill="#556b2f" d="M 1444.660156 298.148438 C 1477.425781 283.910156 1480.617188 283.320312 1478.0625 291.972656 C 1472.4375 311.011719 1452.640625 356.644531 1442.660156 373.589844 C 1426.671875 400.734375 1400.636719 425.804688 1380.667969 433.273438 C 1361.957031 440.273438 1335.675781 441.113281 1326.933594 434.996094 C 1311.703125 424.320312 1318.988281 389.367188 1341.703125 364.101562 C 1363.546875 339.808594 1394.65625 319.875 1444.660156 298.148438 Z M 1444.660156 298.148438 " fill-opacity="1" fill-rule="nonzero"/><g clip-path="url(#c6aeb569d2)"><path fill="#556b2f" d="M 248.992188 95.949219 C 255.210938 95.957031 281.75 147.183594 292.367188 179.664062 C 298.910156 199.695312 300.15625 208.367188 300.367188 235.46875 C 300.597656 265.230469 300.046875 268.710938 292.800781 283.472656 C 283.9375 301.519531 272.792969 312.15625 258.667969 316.058594 C 238.003906 321.761719 218.003906 309.578125 205.183594 283.472656 C 197.9375 268.710938 197.386719 265.234375 197.617188 235.46875 C 197.828125 208.367188 199.066406 199.691406 205.613281 179.664062 C 213.976562 154.066406 221.804688 137.171875 236.949219 111.996094 C 242.257812 103.171875 247.679688 95.949219 248.992188 95.949219 Z M 248.992188 95.949219 " fill-opacity="1" fill-rule="nonzero"/></g><g clip-path="url(#828442b756)"><path fill="#556b2f" d="M 767.996094 95.949219 C 774.222656 95.964844 800.753906 147.183594 811.371094 179.664062 C 817.921875 199.695312 819.160156 208.367188 819.367188 235.46875 C 819.597656 265.234375 819.046875 268.710938 811.800781 283.472656 C 798.980469 309.578125 778.984375 321.765625 758.320312 316.058594 C 744.195312 312.15625 733.054688 301.519531 724.191406 283.472656 C 716.945312 268.710938 716.398438 265.234375 716.628906 235.46875 C 716.832031 208.367188 718.074219 199.695312 724.621094 179.664062 C 732.988281 154.066406 740.808594 137.171875 755.957031 111.996094 C 761.269531 103.171875 766.6875 95.949219 767.996094 95.949219 Z M 767.996094 95.949219 " fill-opacity="1" fill-rule="nonzero"/></g><g clip-path="url(#ea4f7b32a2)"><path fill="#556b2f" d="M 1287.003906 95.949219 C 1293.214844 95.949219 1319.769531 147.179688 1330.386719 179.664062 C 1336.929688 199.691406 1338.167969 208.367188 1338.378906 235.46875 C 1338.613281 265.234375 1338.0625 268.710938 1330.808594 283.472656 C 1317.992188 309.578125 1297.992188 321.761719 1277.328125 316.058594 C 1263.199219 312.15625 1252.066406 301.519531 1243.207031 283.472656 C 1235.953125 268.710938 1235.402344 265.234375 1235.636719 235.46875 C 1235.847656 208.367188 1237.085938 199.695312 1243.628906 179.664062 C 1251.996094 154.066406 1259.824219 137.171875 1274.964844 111.996094 C 1280.273438 103.179688 1285.6875 95.957031 1287.003906 95.949219 Z M 1287.003906 95.949219 " fill-opacity="1" fill-rule="nonzero"/></g></svg>